<svg xmlns="http://www.w3.org/2000/svg" xmlns:xlink="http://www.w3.org/1999/xlink" width="500" zoomAndPan="magnify" viewBox="0 0 375 374.999991" height="500" preserveAspectRatio="xMidYMid meet" version="1.0"><defs><clipPath id="de458570c8"><path d="M 76 3.054688 L 300 3.054688 L 300 47 L 76 47 Z M 76 3.054688 " clip-rule="nonzero"/></clipPath><clipPath id="fd29aa6b3f"><path d="M 3.054688 68 L 183 68 L 183 336 L 3.054688 336 Z M 3.054688 68 " clip-rule="nonzero"/></clipPath><clipPath id="b70435bf5e"><path d="M 191 68 L 372.054688 68 L 372.054688 335 L 191 335 Z M 191 68 " clip-rule="nonzero"/></clipPath><clipPath id="2307bcbef8"><path d="M 76 328 L 300 328 L 300 372.054688 L 76 372.054688 Z M 76 328 " clip-rule="nonzero"/></clipPath></defs><g clip-path="url(#de458570c8)"><path fill="#dd8500" d="M 163.769531 4.207031 C 142.078125 7.015625 119.808594 14.078125 101.070312 24.027344 C 92.78125 28.421875 76.566406 39.089844 76.566406 40.097656 C 76.566406 41.035156 80.242188 46.296875 80.890625 46.296875 C 81.105469 46.296875 83.125 45 85.285156 43.339844 C 96.527344 34.910156 115.988281 24.960938 131.699219 19.773438 C 159.085938 10.621094 190.003906 8.386719 218.902344 13.429688 C 241.75 17.46875 265.460938 27.050781 285.207031 40.242188 C 290.253906 43.558594 294.578125 46.296875 294.867188 46.296875 C 295.515625 46.296875 299.261719 41.179688 299.261719 40.3125 C 299.261719 39.519531 281.171875 27.84375 274.039062 24.027344 C 254.792969 13.863281 232.523438 6.871094 210.617188 4.132812 C 199.445312 2.765625 174.363281 2.835938 163.769531 4.207031 Z M 163.769531 4.207031 " fill-opacity="1" fill-rule="nonzero"/></g><g clip-path="url(#fd29aa6b3f)"><path fill="#dd8500" d="M 3.917969 69.503906 C 2.691406 70.726562 2.691406 304.378906 3.917969 305.605469 C 4.566406 306.253906 17.179688 306.46875 56.167969 306.46875 L 107.554688 306.46875 L 107.554688 299.261719 L 10.261719 299.261719 L 10.261719 75.84375 L 147.195312 75.84375 L 147.195312 270.21875 L 144.167969 270.722656 C 135.300781 272.164062 125.574219 279.804688 121.175781 288.8125 C 118.796875 293.710938 118.726562 294.074219 118.726562 302.867188 C 118.726562 311.515625 118.796875 312.019531 121.03125 316.632812 C 125.210938 325.136719 131.554688 330.828125 140.417969 333.929688 C 143.949219 335.152344 145.96875 335.371094 152.238281 335.152344 C 159.085938 334.9375 160.3125 334.648438 164.851562 332.414062 C 171.480469 329.242188 177.175781 323.550781 180.417969 316.917969 C 182.796875 312.019531 182.867188 311.660156 182.867188 302.867188 C 182.867188 294.074219 182.796875 293.710938 180.417969 288.8125 C 176.023438 279.804688 166.292969 272.164062 157.429688 270.722656 L 154.402344 270.21875 L 154.402344 170.328125 C 154.402344 93.5 154.183594 70.152344 153.535156 69.503906 C 152.3125 68.277344 5.144531 68.277344 3.917969 69.503906 Z M 159.949219 279.949219 C 165.570312 282.039062 171.699219 288.164062 173.859375 294 C 176.023438 299.695312 175.734375 308.125 173.140625 313.316406 C 170.617188 318.503906 164.777344 323.980469 159.660156 325.929688 C 153.96875 328.089844 145.535156 327.800781 140.347656 325.207031 C 135.230469 322.757812 129.609375 316.773438 127.808594 311.875 C 125.789062 306.46875 125.789062 299.261719 127.808594 293.785156 C 129.824219 288.378906 136.167969 281.964844 141.5 279.949219 C 146.90625 277.855469 154.472656 277.855469 159.949219 279.949219 Z M 159.949219 279.949219 " fill-opacity="1" fill-rule="nonzero"/></g><path fill="#dd8500" d="M 139.769531 291.910156 L 137.105469 294.648438 L 141.066406 298.542969 L 145.03125 302.433594 L 140.921875 306.613281 L 136.816406 310.792969 L 139.625 313.675781 L 142.4375 316.558594 L 146.617188 312.449219 L 150.796875 308.34375 L 154.976562 312.449219 L 159.15625 316.558594 L 161.96875 313.675781 L 164.777344 310.792969 L 160.671875 306.613281 L 156.5625 302.433594 L 160.527344 298.542969 L 164.492188 294.578125 L 158.726562 288.8125 L 154.761719 292.777344 L 150.796875 296.667969 L 146.976562 292.921875 C 144.886719 290.828125 143.015625 289.171875 142.796875 289.171875 C 142.582031 289.171875 141.210938 290.398438 139.769531 291.910156 Z M 139.769531 291.910156 " fill-opacity="1" fill-rule="nonzero"/><g clip-path="url(#b70435bf5e)"><path fill="#dd8500" d="M 192.742188 69.503906 C 191.515625 70.726562 191.515625 304.378906 192.742188 305.605469 C 193.390625 306.253906 207.15625 306.46875 250.328125 306.46875 L 306.972656 306.46875 L 307.476562 309.496094 C 308.917969 318.359375 316.558594 328.019531 325.566406 332.488281 C 330.46875 334.863281 330.757812 334.9375 339.621094 334.9375 C 348.414062 334.9375 348.773438 334.863281 353.675781 332.488281 C 360.234375 329.242188 366 323.550781 369.242188 316.917969 C 371.621094 312.019531 371.691406 311.730469 371.691406 302.867188 C 371.691406 294.074219 371.621094 293.710938 369.316406 288.957031 L 366.863281 284.054688 L 369.457031 280.089844 C 370.898438 278 372.054688 276.054688 372.054688 275.910156 C 372.054688 275.625 365.855469 271.875 365.351562 271.875 C 365.207031 271.875 359.367188 280.453125 352.523438 290.972656 C 345.601562 301.496094 339.835938 310.074219 339.621094 310.074219 C 339.40625 310.074219 336.8125 306.46875 333.855469 302.074219 C 330.902344 297.675781 328.234375 293.929688 327.945312 293.785156 C 327.296875 293.351562 321.675781 297.246094 321.605469 298.109375 C 321.605469 298.6875 334.648438 318.074219 336.59375 320.308594 C 337.964844 321.964844 341.207031 321.964844 342.648438 320.308594 C 343.296875 319.65625 347.835938 312.957031 352.808594 305.386719 L 361.890625 291.765625 L 362.828125 293.855469 C 363.332031 295.152344 363.765625 298.902344 363.765625 302.867188 C 363.765625 311.226562 362.25 314.972656 356.484375 320.667969 C 351.226562 325.785156 346.253906 327.585938 338.539062 327.226562 C 331.332031 326.9375 327.007812 324.992188 321.820312 319.730469 C 317.136719 314.902344 315.117188 309.855469 315.117188 302.867188 C 315.117188 295.730469 317.207031 290.613281 322.035156 285.714844 C 326.433594 281.316406 330.683594 279.226562 336.882812 278.363281 C 339.1875 278 341.640625 277.351562 342.214844 276.847656 C 343.082031 276.128906 343.226562 261.570312 343.226562 173.210938 C 343.226562 94.148438 343.007812 70.152344 342.359375 69.503906 C 341.136719 68.277344 193.96875 68.277344 192.742188 69.503906 Z M 336.019531 173.066406 L 336.019531 270.21875 L 332.992188 270.722656 C 327.875 271.515625 320.8125 275.40625 316.488281 279.730469 C 312.089844 284.199219 308.269531 291.117188 307.476562 296.089844 L 307.046875 299.261719 L 199.085938 299.261719 L 199.085938 75.84375 L 336.019531 75.84375 Z M 336.019531 173.066406 " fill-opacity="1" fill-rule="nonzero"/></g><path fill="#dd8500" d="M 237.28125 95.304688 L 237.28125 98.90625 L 297.820312 98.90625 L 297.820312 91.699219 L 237.28125 91.699219 Z M 237.28125 95.304688 " fill-opacity="1" fill-rule="nonzero"/><path fill="#dd8500" d="M 220.199219 124.5625 C 215.734375 127.230469 213.5 131.410156 213.5 137.105469 C 213.5 145.96875 219.046875 151.519531 227.914062 151.519531 C 236.777344 151.519531 242.328125 145.96875 242.328125 137.105469 C 242.328125 128.238281 236.777344 122.691406 227.839844 122.691406 C 224.164062 122.691406 222.578125 123.050781 220.199219 124.5625 Z M 232.523438 132.492188 C 233.894531 133.859375 234.398438 135.15625 234.398438 137.105469 C 234.398438 139.050781 233.894531 140.347656 232.523438 141.714844 C 228.34375 145.824219 221.425781 142.941406 221.425781 137.105469 C 221.425781 131.195312 228.273438 128.3125 232.523438 132.492188 Z M 232.523438 132.492188 " fill-opacity="1" fill-rule="nonzero"/><path fill="#dd8500" d="M 253.136719 137.105469 L 253.136719 140.707031 L 318 140.707031 L 318 133.5 L 253.136719 133.5 Z M 253.136719 137.105469 " fill-opacity="1" fill-rule="nonzero"/><path fill="#dd8500" d="M 220.199219 175.011719 C 215.734375 177.679688 213.5 181.859375 213.5 187.554688 C 213.5 196.417969 219.046875 201.96875 227.914062 201.96875 C 236.777344 201.96875 242.328125 196.417969 242.328125 187.554688 C 242.328125 178.6875 236.777344 173.140625 227.839844 173.140625 C 224.164062 173.140625 222.578125 173.5 220.199219 175.011719 Z M 232.523438 182.941406 C 236.632812 187.121094 233.75 194.039062 227.914062 194.039062 C 222.148438 194.039062 219.265625 187.191406 223.226562 182.941406 C 225.679688 180.347656 229.859375 180.347656 232.523438 182.941406 Z M 232.523438 182.941406 " fill-opacity="1" fill-rule="nonzero"/><path fill="#dd8500" d="M 253.136719 187.554688 L 253.136719 191.15625 L 318 191.15625 L 318 183.949219 L 253.136719 183.949219 Z M 253.136719 187.554688 " fill-opacity="1" fill-rule="nonzero"/><path fill="#dd8500" d="M 220.199219 225.460938 C 215.734375 228.128906 213.5 232.308594 213.5 238.003906 C 213.5 246.867188 219.046875 252.417969 227.914062 252.417969 C 236.777344 252.417969 242.328125 246.867188 242.328125 238.003906 C 242.328125 229.136719 236.777344 223.589844 227.839844 223.589844 C 224.164062 223.589844 222.578125 223.949219 220.199219 225.460938 Z M 232.523438 233.390625 C 236.632812 237.570312 233.75 244.488281 227.914062 244.488281 C 222.148438 244.488281 219.265625 237.640625 223.226562 233.390625 C 225.679688 230.796875 229.859375 230.796875 232.523438 233.390625 Z M 232.523438 233.390625 " fill-opacity="1" fill-rule="nonzero"/><path fill="#dd8500" d="M 253.136719 238.003906 L 253.136719 241.605469 L 318 241.605469 L 318 234.398438 L 253.136719 234.398438 Z M 253.136719 238.003906 " fill-opacity="1" fill-rule="nonzero"/><path fill="#dd8500" d="M 48.457031 95.304688 L 48.457031 98.90625 L 108.996094 98.90625 L 108.996094 91.699219 L 48.457031 91.699219 Z M 48.457031 95.304688 " fill-opacity="1" fill-rule="nonzero"/><path fill="#dd8500" d="M 31.375 124.5625 C 26.910156 127.230469 24.675781 131.410156 24.675781 137.105469 C 24.675781 145.96875 30.222656 151.519531 39.089844 151.519531 C 47.953125 151.519531 53.503906 145.96875 53.503906 137.105469 C 53.503906 128.238281 47.953125 122.691406 39.015625 122.691406 C 35.339844 122.691406 33.753906 123.050781 31.375 124.5625 Z M 43.699219 132.492188 C 47.808594 136.671875 44.925781 143.589844 39.089844 143.589844 C 33.324219 143.589844 30.441406 136.742188 34.402344 132.492188 C 36.855469 129.898438 41.035156 129.898438 43.699219 132.492188 Z M 43.699219 132.492188 " fill-opacity="1" fill-rule="nonzero"/><path fill="#dd8500" d="M 64.3125 137.105469 L 64.3125 140.707031 L 129.175781 140.707031 L 129.175781 133.5 L 64.3125 133.5 Z M 64.3125 137.105469 " fill-opacity="1" fill-rule="nonzero"/><path fill="#dd8500" d="M 31.375 175.011719 C 26.910156 177.679688 24.675781 181.859375 24.675781 187.554688 C 24.675781 196.417969 30.222656 201.96875 39.089844 201.96875 C 47.953125 201.96875 53.503906 196.417969 53.503906 187.554688 C 53.503906 178.6875 47.953125 173.140625 39.015625 173.140625 C 35.339844 173.140625 33.753906 173.5 31.375 175.011719 Z M 43.699219 182.941406 C 47.808594 187.121094 44.925781 194.039062 39.089844 194.039062 C 33.324219 194.039062 30.441406 187.191406 34.402344 182.941406 C 36.855469 180.347656 41.035156 180.347656 43.699219 182.941406 Z M 43.699219 182.941406 " fill-opacity="1" fill-rule="nonzero"/><path fill="#dd8500" d="M 64.3125 187.554688 L 64.3125 191.15625 L 129.175781 191.15625 L 129.175781 183.949219 L 64.3125 183.949219 Z M 64.3125 187.554688 " fill-opacity="1" fill-rule="nonzero"/><path fill="#dd8500" d="M 31.375 225.460938 C 26.910156 228.128906 24.675781 232.308594 24.675781 238.003906 C 24.675781 246.867188 30.222656 252.417969 39.089844 252.417969 C 47.953125 252.417969 53.503906 246.867188 53.503906 238.003906 C 53.503906 229.136719 47.953125 223.589844 39.015625 223.589844 C 35.339844 223.589844 33.753906 223.949219 31.375 225.460938 Z M 43.699219 233.390625 C 47.808594 237.570312 44.925781 244.488281 39.089844 244.488281 C 33.324219 244.488281 30.441406 237.640625 34.402344 233.390625 C 36.855469 230.796875 41.035156 230.796875 43.699219 233.390625 Z M 43.699219 233.390625 " fill-opacity="1" fill-rule="nonzero"/><path fill="#dd8500" d="M 64.3125 238.003906 L 64.3125 241.605469 L 129.175781 241.605469 L 129.175781 234.398438 L 64.3125 234.398438 Z M 64.3125 238.003906 " fill-opacity="1" fill-rule="nonzero"/><g clip-path="url(#2307bcbef8)"><path fill="#dd8500" d="M 78.4375 331.550781 C 77.429688 333.0625 76.566406 334.648438 76.566406 335.007812 C 76.566406 336.019531 92.78125 346.683594 101.070312 351.082031 C 120.238281 361.242188 142.148438 368.089844 164.347656 370.898438 C 175.949219 372.414062 198.796875 372.414062 210.617188 370.972656 C 232.523438 368.234375 254.792969 361.242188 274.039062 351.082031 C 281.171875 347.261719 299.261719 335.585938 299.261719 334.792969 C 299.261719 333.855469 295.441406 328.8125 294.792969 328.8125 C 294.363281 328.8125 291.621094 330.539062 288.597656 332.703125 C 264.453125 349.566406 237.570312 359.65625 206.796875 363.40625 C 197.355469 364.558594 175.660156 364.339844 165.570312 363.042969 C 147.699219 360.738281 130.546875 355.835938 114.617188 348.628906 C 105.679688 344.59375 91.773438 336.59375 85.285156 331.765625 C 83.125 330.109375 81.105469 328.8125 80.890625 328.8125 C 80.601562 328.8125 79.519531 330.035156 78.4375 331.550781 Z M 78.4375 331.550781 " fill-opacity="1" fill-rule="nonzero"/></g></svg>