<svg width="1220" height="674" viewBox="0 0 1220 674" fill="none" xmlns="http://www.w3.org/2000/svg">
<mask id="mask0_1106:40037" style="mask-type:alpha" maskUnits="userSpaceOnUse" x="0" y="0" width="1220" height="674">
<rect width="1220" height="673.511" fill="#3347FF"/>
</mask>
<g mask="url(#mask0_1106:40037)">
<path d="M-327.825 829.322C-327.825 829.322 -162.398 599.158 73.9246 770.515C310.247 941.871 451.715 779.491 494.572 645.393C537.43 511.296 750.643 119.085 1225.61 380.514" stroke="#4E5FFF" stroke-width="3" stroke-miterlimit="10"/>
<path d="M-327.279 828.497C-327.279 828.497 -157.791 604.133 74.933 776.376C307.657 948.619 453.514 795.619 509.46 654.263C565.399 512.945 779.56 137.833 1247.13 395.835" stroke="#4E5FFF" stroke-width="2.9191" stroke-miterlimit="10"/>
<path d="M-326.695 827.679C-326.695 827.679 -153.147 609.115 75.9333 782.276C305.013 955.437 455.352 811.753 524.339 663.17C593.32 514.626 808.422 156.651 1268.59 411.227" stroke="#4E5FFF" stroke-width="2.8382" stroke-miterlimit="10"/>
<path d="M-326.15 826.855C-326.15 826.855 -148.54 614.09 76.9343 788.177C302.409 962.263 457.151 827.881 539.22 672.079C621.288 516.276 837.331 175.438 1290.14 426.594" stroke="#4E5FFF" stroke-width="2.7573" stroke-miterlimit="10"/>
<path d="M-325.565 826.038C-325.565 826.038 -143.856 619.079 77.9356 794.077C299.727 969.076 458.944 844.048 554.1 680.987C649.211 517.958 866.201 194.218 1311.64 441.954" stroke="#4E5FFF" stroke-width="2.6765" stroke-miterlimit="10"/>
<path d="M-325.019 825.213C-325.019 825.213 -139.249 624.053 78.9364 799.977C297.129 975.862 460.782 860.182 568.973 689.933C677.165 519.684 895.064 213.036 1333.14 457.391" stroke="#4E5FFF" stroke-width="2.5956" stroke-miterlimit="10"/>
<path d="M-324.435 824.396C-324.435 824.396 -134.604 629.036 79.9766 805.885C294.564 982.695 462.62 876.317 583.893 698.848C705.165 521.38 924.013 231.83 1354.69 472.759" stroke="#4E5FFF" stroke-width="2.5147" stroke-miterlimit="10"/>
<path d="M-323.85 823.578C-323.85 823.578 -129.966 634.056 80.9774 811.784C291.92 989.513 464.42 892.444 598.773 707.756C733.094 523.022 952.883 250.609 1376.15 488.112" stroke="#4E5FFF" stroke-width="2.4338" stroke-miterlimit="10"/>
<path d="M-323.305 822.753C-323.305 822.753 -125.359 639.031 81.9853 817.646C289.33 996.261 466.219 908.572 613.621 716.618C761.024 524.664 981.753 269.388 1397.66 503.472" stroke="#4E5FFF" stroke-width="2.3529" stroke-miterlimit="10"/>
<path d="M-322.72 821.936C-322.72 821.936 -120.714 644.012 82.9862 823.546C286.718 1003.13 468.057 924.706 628.502 725.526C788.985 526.352 1010.62 288.168 1419.17 518.831" stroke="#4E5FFF" stroke-width="2.2721" stroke-miterlimit="10"/>
<path d="M-322.175 821.111C-322.175 821.111 -116.108 648.988 83.987 829.446C284.075 1009.94 469.856 940.834 643.382 734.434C816.939 528.079 1039.52 306.993 1440.71 534.237" stroke="#4E5FFF" stroke-width="2.1912" stroke-miterlimit="10"/>
<path d="M-321.59 820.294C-321.59 820.294 -111.462 653.97 84.988 835.347C281.477 1016.73 471.649 957.002 658.262 743.343C844.868 529.722 1068.39 325.774 1462.18 549.591" stroke="#4E5FFF" stroke-width="2.1103" stroke-miterlimit="10"/>
<path d="M-321.013 819.515C-321.013 819.515 -106.824 658.991 86.0208 841.293C278.866 1023.6 473.48 973.175 673.174 752.296C872.868 531.417 1097.34 344.606 1483.76 565.003" stroke="#4E5FFF" stroke-width="2.0294" stroke-miterlimit="10"/>
<path d="M-320.467 818.691C-320.467 818.691 -102.218 663.965 87.0217 847.193C276.261 1030.42 475.318 989.309 688.054 761.204C900.79 533.098 1126.21 363.385 1505.26 580.363" stroke="#4E5FFF" stroke-width="1.9485" stroke-miterlimit="10"/>
<path d="M-319.883 817.873C-319.883 817.873 -97.5726 668.947 88.0226 853.093C273.618 1037.24 477.11 1005.48 702.927 770.15C928.751 534.786 1155.07 382.164 1526.77 595.723" stroke="#4E5FFF" stroke-width="1.8677" stroke-miterlimit="10"/>
<path d="M-319.337 817.049C-319.337 817.049 -92.9655 673.923 89.0311 858.955C271.021 1044.03 478.917 1021.57 717.815 779.02C956.713 536.474 1183.98 400.991 1548.27 611.123" stroke="#4E5FFF" stroke-width="1.7868" stroke-miterlimit="10"/>
<path d="M-318.752 816.232C-318.752 816.232 -88.3203 678.905 90.0321 864.856C268.384 1050.81 480.755 1037.7 732.695 787.928C984.635 538.156 1212.85 419.77 1569.78 626.483" stroke="#4E5FFF" stroke-width="1.7059" stroke-miterlimit="10"/>
<path d="M-318.207 815.407C-318.207 815.407 -83.714 683.879 91.0329 870.756C265.78 1057.63 482.555 1053.83 747.576 796.836C1012.6 539.844 1241.76 438.556 1591.28 641.881" stroke="#4E5FFF" stroke-width="1.625" stroke-miterlimit="10"/>
<path d="M-317.623 814.589C-317.623 814.589 -79.0692 688.861 92.0335 876.656C263.175 1064.46 484.347 1069.99 762.455 805.744C1040.56 541.493 1270.63 457.336 1612.79 657.242" stroke="#4E5FFF" stroke-width="1.5441" stroke-miterlimit="10"/>
<path d="M-317.038 813.772C-317.038 813.772 -74.4237 693.843 93.0735 882.563C260.571 1071.28 486.185 1086.13 777.336 814.652C1068.53 543.181 1299.53 476.162 1634.3 672.602" stroke="#4E5FFF" stroke-width="1.4632" stroke-miterlimit="10"/>
<path d="M-316.492 812.947C-316.492 812.947 -69.8172 698.818 94.0746 888.463C257.966 1078.11 488.023 1102.26 792.255 823.566C1096.49 544.869 1328.44 494.948 1655.84 687.968" stroke="#4E5FFF" stroke-width="1.3823" stroke-miterlimit="10"/>
<path d="M-315.908 812.13C-315.908 812.13 -65.1719 703.8 95.0825 894.325C255.337 1084.85 489.823 1118.39 807.103 832.429C1124.41 546.551 1357.31 513.728 1677.34 703.368" stroke="#4E5FFF" stroke-width="1.3015" stroke-miterlimit="10"/>
<path d="M-315.362 811.306C-315.362 811.306 -60.5657 708.775 96.0832 900.226C252.732 1091.68 491.622 1134.52 821.976 841.376C1152.37 548.239 1386.21 532.553 1698.85 718.728" stroke="#4E5FFF" stroke-width="1.2206" stroke-miterlimit="10"/>
<path d="M-314.778 810.488C-314.778 810.488 -55.9203 713.757 97.0844 906.126C250.089 1098.5 493.46 1150.65 836.857 850.284C1180.25 549.914 1415.08 551.333 1720.32 734.081" stroke="#4E5FFF" stroke-width="1.1397" stroke-miterlimit="10"/>
<path d="M-314.193 809.67C-314.193 809.67 -51.275 718.738 98.1241 912.033C247.523 1105.33 495.291 1166.83 851.776 859.198C1208.26 551.569 1443.99 570.119 1741.86 749.487" stroke="#4E5FFF" stroke-width="1.0588" stroke-miterlimit="10"/>
<path d="M-313.648 808.846C-313.648 808.846 -46.6686 723.714 99.1251 917.933C244.88 1112.15 497.091 1182.96 866.656 868.106C1236.22 553.258 1472.86 588.899 1763.41 764.854" stroke="#4E5FFF" stroke-width="0.9779" stroke-miterlimit="10"/>
<path d="M-313.063 808.028C-313.063 808.028 -42.0231 728.695 100.126 923.833C242.276 1118.97 498.89 1199.08 881.537 877.014C1264.18 554.946 1501.76 607.724 1784.92 780.214" stroke="#4E5FFF" stroke-width="0.8971" stroke-miterlimit="10"/>
<path d="M-312.524 807.243C-312.524 807.243 -37.424 733.709 101.12 929.773C239.632 1125.79 500.721 1215.26 896.41 885.961C1292.1 556.666 1530.62 626.543 1806.41 795.652" stroke="#4E5FFF" stroke-width="0.8162" stroke-miterlimit="10"/>
<path d="M-311.94 806.425C-311.94 806.425 -32.7788 738.691 102.128 935.634C237.034 1132.58 502.52 1231.38 911.297 894.83C1320.07 558.276 1559.54 645.29 1827.92 810.972" stroke="#4E5FFF" stroke-width="0.7353" stroke-miterlimit="10"/>
<path d="M-311.355 805.608C-311.355 805.608 -28.1329 743.673 103.168 941.541C234.469 1139.41 504.359 1247.52 926.216 903.745C1348.07 559.972 1588.45 664.077 1849.47 826.34" stroke="#4E5FFF" stroke-width="0.6544" stroke-miterlimit="10"/>
<path d="M-310.809 804.783C-310.809 804.783 -23.5266 748.648 104.13 947.435C231.787 1146.22 506.158 1263.65 941.058 912.646C1375.96 561.646 1617.31 682.896 1870.93 841.732" stroke="#4E5FFF" stroke-width="0.5735" stroke-miterlimit="10"/>
<path d="M-310.226 803.966C-310.226 803.966 -18.8819 753.63 105.17 953.342C229.221 1153.05 507.989 1279.82 955.969 921.6C1403.92 563.334 1646.22 701.683 1892.48 857.099" stroke="#4E5FFF" stroke-width="0.4926" stroke-miterlimit="10"/>
<path d="M-309.68 803.142C-309.68 803.142 -14.2751 758.605 106.171 959.242C226.585 1159.83 509.789 1295.95 970.85 930.508C1431.91 565.068 1675.12 720.508 1913.98 872.498" stroke="#4E5FFF" stroke-width="0.4118" stroke-miterlimit="10"/>
<path d="M-309.095 802.323C-309.095 802.323 -9.63 763.586 107.172 965.142C223.973 1166.7 511.588 1312.08 985.73 939.415C1459.87 566.756 1703.99 739.287 1935.49 887.857" stroke="#4E5FFF" stroke-width="0.3309" stroke-miterlimit="10"/>
<path d="M-308.549 801.5C-308.549 801.5 -4.98448 768.569 108.173 971.043C221.33 1173.52 513.42 1328.25 1000.61 948.324C1487.8 568.398 1732.86 758.106 1956.99 903.257" stroke="#4E5FFF" stroke-width="0.25" stroke-miterlimit="10"/>
</g>
</svg>
