<svg xmlns="http://www.w3.org/2000/svg" xmlns:xlink="http://www.w3.org/1999/xlink" width="500" zoomAndPan="magnify" viewBox="0 0 375 374.999991" height="500" preserveAspectRatio="xMidYMid meet" version="1.0"><defs><clipPath id="22f4077bcc"><path d="M 186 2.660156 L 199 2.660156 L 199 74 L 186 74 Z M 186 2.660156 " clip-rule="nonzero"/></clipPath><clipPath id="c16f15fa6a"><path d="M 82 278 L 344 278 L 344 372.410156 L 82 372.410156 Z M 82 278 " clip-rule="nonzero"/></clipPath></defs><g clip-path="url(#22f4077bcc)"><path fill="#84404a" d="M 188.039062 3.960938 C 186.957031 5.1875 186.8125 8.582031 186.8125 37.902344 C 186.8125 69.605469 186.886719 70.617188 188.257812 71.988281 C 190.132812 73.867188 194.035156 73.867188 196.273438 72.058594 L 198.007812 70.6875 L 198.007812 38.191406 C 198.007812 7.28125 197.933594 5.621094 196.632812 4.175781 C 194.828125 2.15625 189.773438 2.082031 188.039062 3.960938 Z M 188.039062 3.960938 " fill-opacity="1" fill-rule="nonzero"/></g><path fill="#84404a" d="M 141.820312 34.578125 C 139.582031 36.3125 139.148438 39.492188 139.148438 54.007812 C 139.148438 71.554688 139.726562 73.433594 145.359375 73.433594 C 150.703125 73.433594 151.425781 70.976562 151.425781 53.574219 C 151.425781 39.203125 150.921875 35.664062 148.539062 34.433594 C 146.660156 33.425781 143.265625 33.570312 141.820312 34.578125 Z M 141.820312 34.578125 " fill-opacity="1" fill-rule="nonzero"/><path fill="#84404a" d="M 235.34375 35.375 C 233.824219 37.035156 233.753906 37.613281 233.753906 53.644531 C 233.753906 70.109375 233.753906 70.328125 235.414062 71.84375 C 237.726562 74.011719 241.265625 73.9375 243.574219 71.625 L 245.378906 69.820312 L 245.164062 53.140625 C 244.945312 36.601562 244.945312 36.457031 243.214844 35.085938 C 240.902344 33.207031 237.292969 33.28125 235.34375 35.375 Z M 235.34375 35.375 " fill-opacity="1" fill-rule="nonzero"/><path fill="#84404a" d="M 182.914062 97.335938 C 159.296875 100.585938 139.367188 112.933594 126.367188 132.289062 C 115.390625 148.683594 110.914062 169.914062 114.308594 189.773438 C 119.867188 222.414062 145.070312 248.125 177.570312 254.335938 C 185.296875 255.78125 199.8125 255.851562 207.464844 254.335938 C 237.726562 248.558594 261.628906 226.242188 269.71875 196.34375 C 271.378906 189.988281 271.59375 188.113281 271.59375 176.339844 C 271.59375 164.570312 271.378906 162.691406 269.644531 156.265625 C 261.917969 127.378906 238.664062 104.917969 210.066406 98.707031 C 202.339844 97.046875 189.703125 96.398438 182.914062 97.335938 Z M 193.671875 118.640625 C 195.480469 119.363281 196.921875 122.902344 196.921875 126.871094 C 196.921875 129.90625 197.140625 130.484375 198.222656 130.484375 C 200.679688 130.484375 208.332031 134.816406 210.933594 137.707031 C 214.761719 141.964844 217.289062 147.453125 217.722656 152.582031 C 218.011719 156.410156 217.867188 157.203125 216.492188 158.574219 C 213.027344 162.042969 207.753906 159.152344 207.753906 153.808594 C 207.753906 150.558594 205.589844 146.445312 202.410156 143.628906 C 192.664062 135.105469 177.425781 142.253906 177.425781 155.398438 C 177.425781 159.875 179.375 164.207031 182.550781 166.878906 C 185.730469 169.554688 187.535156 170.203125 194.324219 170.925781 C 204.074219 172.082031 211.078125 176.847656 215.484375 185.367188 C 217.289062 188.90625 217.503906 190.132812 217.503906 196.199219 C 217.503906 202.265625 217.289062 203.566406 215.484375 207.179688 C 212.8125 212.59375 206.816406 218.082031 201.328125 220.105469 L 197.066406 221.621094 L 196.777344 225.953125 C 196.488281 229.636719 196.128906 230.648438 194.46875 232.09375 C 192.011719 234.1875 191 234.1875 188.546875 232.019531 C 186.8125 230.574219 186.523438 229.636719 186.234375 225.738281 L 185.945312 221.117188 L 181.972656 219.382812 C 174.535156 216.132812 168.832031 208.621094 167.242188 200.171875 C 166.375 195.40625 167.675781 192.15625 170.707031 191.433594 C 174.679688 190.421875 176.628906 192.734375 177.785156 199.882812 C 178.363281 203.640625 181.972656 208.332031 185.585938 209.996094 C 191.433594 212.59375 198.800781 211.582031 203.277344 207.464844 C 207.972656 203.277344 209.199219 194.828125 206.09375 188.90625 C 203.496094 183.996094 199.667969 181.683594 192.878906 181.035156 C 184.71875 180.167969 179.589844 178.074219 174.96875 173.597656 C 164.136719 162.910156 164.28125 146.949219 175.402344 136.550781 C 177.351562 134.746094 180.53125 132.578125 182.480469 131.785156 C 186.019531 130.339844 186.089844 130.195312 186.089844 127.160156 C 186.089844 120.519531 189.269531 116.980469 193.671875 118.640625 Z M 193.671875 118.640625 " fill-opacity="1" fill-rule="nonzero"/><path fill="#84404a" d="M 34.363281 275.496094 C 34.363281 278.960938 33.785156 301.132812 33.0625 324.746094 C 32.414062 348.363281 31.835938 367.789062 31.90625 367.859375 C 31.980469 368.003906 40.789062 368.292969 51.550781 368.582031 L 71.121094 369.015625 L 71.554688 358.617188 C 71.769531 352.910156 72.347656 335.21875 72.710938 319.332031 C 73.070312 303.441406 73.578125 285.964844 73.867188 280.550781 L 74.300781 270.65625 L 71.121094 270.296875 C 69.460938 270.078125 60.433594 269.789062 51.261719 269.574219 L 34.433594 269.210938 Z M 34.363281 275.496094 " fill-opacity="1" fill-rule="nonzero"/><g clip-path="url(#c16f15fa6a)"><path fill="#84404a" d="M 114.597656 278.601562 C 105.714844 279.683594 96.976562 282.5 88.742188 287.050781 C 86.214844 288.421875 84.046875 289.9375 83.902344 290.371094 C 83.46875 291.816406 81.953125 355.871094 82.316406 356.304688 C 82.53125 356.523438 85.132812 355.367188 88.019531 353.707031 C 94.375 350.238281 100.296875 348.578125 106.363281 348.578125 C 111.203125 348.578125 117.125 350.09375 165.148438 363.886719 L 193.671875 371.976562 L 206.671875 372.046875 C 220.25 372.046875 225.738281 371.109375 234.113281 367.425781 C 236.929688 366.199219 340.707031 299.472656 342.65625 297.664062 C 343.449219 296.941406 343.234375 296.4375 341.210938 294.847656 C 336.085938 290.949219 327.996094 289.722656 322.148438 291.816406 C 320.558594 292.394531 307.992188 298.242188 294.054688 304.816406 L 268.777344 316.804688 L 268.996094 321.714844 C 269.210938 325.902344 268.996094 326.914062 267.625 328.644531 L 265.960938 330.742188 L 244.660156 330.308594 C 232.886719 330.019531 215.339844 329.585938 205.589844 329.296875 L 187.894531 328.863281 L 185.875 326.769531 C 183.636719 324.53125 183.707031 322.652344 186.164062 320.050781 C 187.75 318.390625 185.945312 318.464844 231.441406 319.765625 C 245.886719 320.195312 257.875 320.339844 258.089844 320.125 C 258.308594 319.980469 257.945312 318.03125 257.296875 315.9375 C 255.78125 310.664062 251.230469 304.527344 246.609375 301.421875 C 239.601562 296.800781 237.796875 296.511719 213.894531 295.859375 C 174.464844 294.703125 173.234375 294.488281 157.058594 286.761719 C 141.820312 279.539062 128.390625 276.9375 114.597656 278.601562 Z M 114.597656 278.601562 " fill-opacity="1" fill-rule="nonzero"/></g></svg>